<?xml version="1.0" encoding="utf-8"?>
<!-- Generator: Adobe Illustrator 26.1.0, SVG Export Plug-In . SVG Version: 6.00 Build 0)  -->
<svg version="1.1" id="Layer_1" xmlns="http://www.w3.org/2000/svg" xmlns:xlink="http://www.w3.org/1999/xlink" x="0px" y="0px"
	 viewBox="0 0 32 32" style="enable-background:new 0 0 32 32;" xml:space="preserve">
<style type="text/css">
	.st0{fill:#141414;}
	.st1{fill:#FFFFFF;}
</style>
<circle class="st0" cx="16" cy="16" r="16"/>
<path class="st1" d="M15.97,26.8c-1.24,0-2.43-0.14-3.57-0.43c-1.08-0.26-2.12-0.69-3.08-1.27c-0.9-0.56-1.62-1.26-2.15-2.1
	c-0.53-0.84-0.79-1.82-0.79-2.94v-0.35h6.01v0.27c0,0.75,0.33,1.31,1.01,1.66c0.67,0.35,1.58,0.53,2.72,0.53
	c0.58,0,1.16-0.06,1.73-0.19c0.55-0.12,1.01-0.32,1.37-0.6c0.36-0.28,0.54-0.63,0.54-1.06c0-0.69-0.38-1.18-1.14-1.46
	c-0.76-0.29-1.98-0.57-3.66-0.86c-0.98-0.16-1.94-0.38-2.89-0.66c-0.94-0.27-1.84-0.65-2.69-1.14c-0.79-0.45-1.46-1.07-1.97-1.82
	c-0.49-0.73-0.74-1.63-0.74-2.68c0-1.41,0.43-2.59,1.28-3.55s1.99-1.69,3.41-2.19s2.98-0.74,4.69-0.74c1.63,0,3.14,0.27,4.55,0.81
	S23.12,7.33,24,8.34c0.87,1.01,1.31,2.22,1.31,3.64v0.27h-5.95v-0.23c0-0.52-0.17-0.94-0.5-1.27c-0.36-0.34-0.79-0.59-1.26-0.73
	c-0.51-0.16-1.05-0.25-1.58-0.24c-0.49,0-1,0.06-1.53,0.17s-0.97,0.29-1.34,0.55c-0.36,0.25-0.55,0.61-0.55,1.06
	c0,0.44,0.2,0.8,0.59,1.08c0.39,0.28,0.94,0.51,1.64,0.68c0.7,0.18,1.52,0.34,2.44,0.5c0.87,0.14,1.79,0.34,2.76,0.59
	c0.97,0.25,1.88,0.61,2.73,1.07c0.82,0.44,1.53,1.06,2.07,1.82c0.53,0.75,0.79,1.7,0.79,2.84c0,1.18-0.27,2.2-0.82,3.05
	c-0.56,0.86-1.32,1.57-2.22,2.06c-0.97,0.54-2.02,0.94-3.1,1.17C18.34,26.67,17.17,26.8,15.97,26.8z"/>
</svg>
